D:\school\WTK\thesis\model\3dpredictsim\Results\Batchsim_tmt_linear\Pog_s1_tmt_bCst_d02_k800_ig24_act_GRF.mot
nRows=20
nColumns=19

name D:\school\WTK\thesis\model\3dpredictsim\Results\Batchsim_tmt_linear\Pog_s1_tmt_bCst_d02_k800_ig24_act_GRF.mot
datacolumns 19
datarows 20
range 0.0000000000 0.2370818604
endheader
time 	ground_force_vx	ground_force_vy	ground_force_vz	ground_force_px	ground_force_py	ground_force_pz	1_ground_force_vx	1_ground_force_vy	1_ground_force_vz	1_ground_force_px	1_ground_force_py	1_ground_force_pz	ground_torque_x	ground_torque_y	ground_torque_z	1_ground_torque_x	1_ground_torque_y	1_ground_torque_z
        0.0000000000	      -82.8997959829	       71.3832938699	       21.6481552810	        0.1837435933	        0.0000000000	        0.0488871360	       78.0708917858	      348.5776731679	       -4.1451465691	       -0.3734040230	        0.0000000000	       -0.0317133715	        0.0000000000	        0.0000000000	        0.0000000000	        0.0000000000	        0.0000000000	        0.0000000000	
        0.0124779927	     -106.4942654079	      210.1164577645	       46.2147602242	        0.1905069368	        0.0000000000	        0.0474498305	       42.8779018394	      242.5354793348	      -14.0396268081	       -0.3612608427	        0.0000000000	       -0.0270071253	        0.0000000000	        0.0000000000	        0.0000000000	        0.0000000000	        0.0000000000	        0.0000000000	
        0.0249559853	      -65.3700994880	      449.7304953660	        4.5736320054	        0.1948200533	        0.0000000000	        0.0464307743	       24.8270113209	      186.4639211695	      -14.9955190431	       -0.3531696172	        0.0000000000	       -0.0231701907	        0.0000000000	        0.0000000000	        0.0000000000	        0.0000000000	        0.0000000000	        0.0000000000	
        0.0374339780	      -86.4743654059	      687.4606659033	      -13.8881521048	        0.2028541281	        0.0000000000	        0.0479921751	       22.0352987734	      146.1178674801	      -14.5048588664	       -0.3528292452	        0.0000000000	       -0.0232457384	        0.0000000000	        0.0000000000	        0.0000000000	        0.0000000000	        0.0000000000	        0.0000000000	
        0.0499119706	     -130.6408144630	      864.1506525766	      -21.2723046505	        0.2120065257	        0.0000000000	        0.0502405005	       11.9799040774	       95.5761879238	      -13.8924983276	       -0.3526722198	        0.0000000000	       -0.0234162510	        0.0000000000	        0.0000000000	        0.0000000000	        0.0000000000	        0.0000000000	        0.0000000000	
        0.0623899633	     -145.2025706107	      907.3417440729	      -22.1282273225	        0.2177882492	        0.0000000000	        0.0514831529	       -5.0027797811	       38.7032565963	       -7.1293119265	       -0.3539190301	        0.0000000000	       -0.0233284791	        0.0000000000	        0.0000000000	        0.0000000000	        0.0000000000	        0.0000000000	        0.0000000000	
        0.0748679559	     -133.6167001636	      883.1905189463	      -21.5269671656	        0.2218680264	        0.0000000000	        0.0521491986	       -4.4870995983	        4.3548123909	        0.1162864375	        0.0000000000	        0.0000000000	        0.0000000000	        0.0000000000	        0.0000000000	        0.0000000000	        0.0000000000	        0.0000000000	        0.0000000000	
        0.0873459486	     -119.7886591470	      834.0362421757	      -19.4152744247	        0.2258214056	        0.0000000000	        0.0524668671	       -7.7685280003	        6.0635875191	        0.6476061642	        0.0000000000	        0.0000000000	        0.0000000000	        0.0000000000	        0.0000000000	        0.0000000000	        0.0000000000	        0.0000000000	        0.0000000000	
        0.0998239412	     -105.4461954018	      790.6491783048	      -17.7885222341	        0.2300290850	        0.0000000000	        0.0524633243	       -6.5760464871	        4.4320576196	        0.6025624536	        0.0000000000	        0.0000000000	        0.0000000000	        0.0000000000	        0.0000000000	        0.0000000000	        0.0000000000	        0.0000000000	        0.0000000000	
        0.1123019339	      -94.1040922914	      756.5830581611	      -17.7133579868	        0.2351277800	        0.0000000000	        0.0522264623	       -4.6636414689	        2.8248203082	        0.4232566030	        0.0000000000	        0.0000000000	        0.0000000000	        0.0000000000	        0.0000000000	        0.0000000000	        0.0000000000	        0.0000000000	        0.0000000000	
        0.1247799265	      -84.3579293085	      728.6280385042	      -18.1683735480	        0.2407132915	        0.0000000000	        0.0517829211	       -2.8218161354	        1.5762141488	        0.2564772126	        0.0000000000	        0.0000000000	        0.0000000000	        0.0000000000	        0.0000000000	        0.0000000000	        0.0000000000	        0.0000000000	        0.0000000000	
        0.1372579192	      -73.6704987020	      700.3329384768	      -18.4539401909	        0.2459010687	        0.0000000000	        0.0514210695	       -2.1266201691	        1.1269873180	        0.1787140600	        0.0000000000	        0.0000000000	        0.0000000000	        0.0000000000	        0.0000000000	        0.0000000000	        0.0000000000	        0.0000000000	        0.0000000000	
        0.1497359118	      -63.4005528331	      672.6249521991	      -19.3379044343	        0.2506814686	        0.0000000000	        0.0511677158	       -1.4595444719	        0.7409570668	        0.1174971750	        0.0000000000	        0.0000000000	        0.0000000000	        0.0000000000	        0.0000000000	        0.0000000000	        0.0000000000	        0.0000000000	        0.0000000000	
        0.1622139045	      -53.9185660229	      648.7952934514	      -19.6245857709	        0.2553847469	        0.0000000000	        0.0510030618	       -0.9874355459	        0.4835287961	        0.0762231891	        0.0000000000	        0.0000000000	        0.0000000000	        0.0000000000	        0.0000000000	        0.0000000000	        0.0000000000	        0.0000000000	        0.0000000000	
        0.1746918971	      -45.7061619037	      628.9874048394	      -20.0317639235	        0.2601512832	        0.0000000000	        0.0508661366	       -0.7198684604	        0.3421613099	        0.0538322277	        0.0000000000	        0.0000000000	        0.0000000000	        0.0000000000	        0.0000000000	        0.0000000000	        0.0000000000	        0.0000000000	        0.0000000000	
        0.1871698898	      -38.5035258062	      613.5373361346	      -20.2112726438	        0.2652938372	        0.0000000000	        0.0507093004	       -0.5785467582	        0.2679779148	        0.0418142007	        0.0000000000	        0.0000000000	        0.0000000000	        0.0000000000	        0.0000000000	        0.0000000000	        0.0000000000	        0.0000000000	        0.0000000000	
        0.1996478825	      -32.4630328599	      602.7789259276	      -20.2501311662	        0.2711936777	        0.0000000000	        0.0504607545	       -0.5127659631	        0.2321886882	        0.0358900617	        0.0000000000	        0.0000000000	        0.0000000000	        0.0000000000	        0.0000000000	        0.0000000000	        0.0000000000	        0.0000000000	        0.0000000000	
        0.2121258751	      -27.9037609424	      595.8397204886	      -19.9959071189	        0.2777409276	        0.0000000000	        0.0500972718	       -0.4984086750	        0.2210089322	        0.0337975009	        0.0000000000	        0.0000000000	        0.0000000000	        0.0000000000	        0.0000000000	        0.0000000000	        0.0000000000	        0.0000000000	        0.0000000000	
        0.2246038678	      -24.6222011384	      592.2051179702	      -19.3702118288	        0.2846198026	        0.0000000000	        0.0496389376	       -0.5346114102	        0.2322218074	        0.0349620126	        0.0000000000	        0.0000000000	        0.0000000000	        0.0000000000	        0.0000000000	        0.0000000000	        0.0000000000	        0.0000000000	        0.0000000000	
        0.2370818604	      -21.8083021381	      590.3743327997	      -18.5081054087	        0.2916286071	        0.0000000000	        0.0491066911	       -0.6220833350	        0.2649090884	        0.0388583503	        0.0000000000	        0.0000000000	        0.0000000000	        0.0000000000	        0.0000000000	        0.0000000000	        0.0000000000	        0.0000000000	        0.0000000000	
